<svg xmlns="http://www.w3.org/2000/svg" width="25" height="25" viewBox="0 0 25 25" fill="none">
    <circle cx="12.8281" cy="12.1252" r="11" fill="#FCCB06" fill-opacity="0.3"/>
    <path fill-rule="evenodd" clip-rule="evenodd" d="M1.82812 12.1252C1.82812 6.07296 6.77584 1.12524 12.8281 1.12524C18.8804 1.12524 23.8281 6.07296 23.8281 12.1252C23.8281 18.1775 18.8804 23.1252 12.8281 23.1252C6.77584 23.1252 1.82812 18.1775 1.82812 12.1252ZM12.8281 3.12524C7.88041 3.12524 3.82812 7.17753 3.82812 12.1252C3.82812 17.073 7.88041 21.1252 12.8281 21.1252C17.7758 21.1252 21.8281 17.073 21.8281 12.1252C21.8281 7.17753 17.7758 3.12524 12.8281 3.12524ZM17.7859 8.58876C18.176 8.97963 18.1755 9.61279 17.7846 10.003L12.1146 15.663C11.724 16.0529 11.0913 16.0526 10.701 15.6624L7.87102 12.8324C7.48049 12.4418 7.48049 11.8087 7.87102 11.4181C8.26154 11.0276 8.89471 11.0276 9.28523 11.4181L11.4087 13.5417L16.3716 8.58751C16.7625 8.19733 17.3957 8.19789 17.7859 8.58876Z" fill="#FCCB06"/>
</svg>