<svg width="28" height="25" viewBox="0 0 28 25" fill="none" xmlns="http://www.w3.org/2000/svg">
<path d="M28 6.48654V20.1923C28 21.4674 27.5391 22.6902 26.7186 23.5919C25.8981 24.4935 24.7853 25 23.625 25H4.375C3.21468 25 2.10188 24.4935 1.28141 23.5919C0.460936 22.6902 0 21.4674 0 20.1923V6.48654L13.5555 15.2519C13.6902 15.3392 13.8437 15.3852 14 15.3852C14.1563 15.3852 14.3098 15.3392 14.4445 15.2519L28 6.48654ZM23.625 5.95244e-08C24.7015 -0.000185992 25.7403 0.435782 26.5426 1.2245C27.3449 2.01322 27.8545 3.09931 27.9738 4.275L14 13.3077L0.0262502 4.275C0.145527 3.09931 0.655067 2.01322 1.45739 1.2245C2.25972 0.435782 3.29849 -0.000185992 4.375 5.95244e-08H23.625Z" fill="#D92D20"/>
</svg>
