<svg width="40" height="34" viewBox="0 0 40 34" fill="none" xmlns="http://www.w3.org/2000/svg">
<path d="M8 8H31" stroke="#D92D20" stroke-width="2" stroke-linecap="round"/>
<path d="M8 13.8286H31" stroke="#D92D20" stroke-width="2" stroke-linecap="round"/>
<path d="M7.763 24.2571V19.3571H8.337L10.535 23.0601H10.227L12.397 19.3571H12.971L12.978 24.2571H12.306L12.299 20.4141H12.46L10.528 23.6621H10.206L8.26 20.4141H8.435V24.2571H7.763ZM15.1402 21.4711H17.6602V22.0661H15.1402V21.4711ZM15.2032 23.6481H18.0592V24.2571H14.5032V19.3571H17.9612V19.9661H15.2032V23.6481ZM22.6725 19.3571H23.3725V24.2571H22.6725V19.3571ZM19.8585 24.2571H19.1585V19.3571H19.8585V24.2571ZM22.7355 22.0731H19.7885V21.4641H22.7355V22.0731ZM24.9007 24.2571V19.3571H25.5937V21.4571H26.8607V22.0871H25.5937V24.2571H24.9007ZM28.9607 24.3131C28.606 24.3131 28.277 24.2525 27.9737 24.1311C27.6704 24.0051 27.4067 23.8301 27.1827 23.6061C26.9587 23.3775 26.7837 23.1115 26.6577 22.8081C26.5364 22.5048 26.4757 22.1711 26.4757 21.8071C26.4757 21.4431 26.5364 21.1095 26.6577 20.8061C26.7837 20.5028 26.9587 20.2391 27.1827 20.0151C27.4067 19.7865 27.6704 19.6115 27.9737 19.4901C28.277 19.3641 28.606 19.3011 28.9607 19.3011C29.3154 19.3011 29.6444 19.3641 29.9477 19.4901C30.2557 19.6115 30.5217 19.7865 30.7457 20.0151C30.9697 20.2391 31.1424 20.5028 31.2637 20.8061C31.3897 21.1095 31.4527 21.4431 31.4527 21.8071C31.4527 22.1711 31.3897 22.5048 31.2637 22.8081C31.1424 23.1115 30.9697 23.3775 30.7457 23.6061C30.5217 23.8301 30.2557 24.0051 29.9477 24.1311C29.6444 24.2525 29.3154 24.3131 28.9607 24.3131ZM28.9607 23.6831C29.2174 23.6831 29.453 23.6388 29.6677 23.5501C29.887 23.4568 30.076 23.3261 30.2347 23.1581C30.398 22.9901 30.524 22.7918 30.6127 22.5631C30.706 22.3345 30.7527 22.0825 30.7527 21.8071C30.7527 21.5318 30.706 21.2798 30.6127 21.0511C30.524 20.8225 30.398 20.6241 30.2347 20.4561C30.076 20.2881 29.887 20.1598 29.6677 20.0711C29.453 19.9778 29.2197 19.9311 28.9677 19.9311C28.7157 19.9311 28.48 19.9778 28.2607 20.0711C28.046 20.1598 27.857 20.2881 27.6937 20.4561C27.535 20.6241 27.409 20.8225 27.3157 21.0511C27.227 21.2798 27.1827 21.5318 27.1827 21.8071C27.1827 22.0825 27.227 22.3345 27.3157 22.5631C27.409 22.7918 27.535 22.9901 27.6937 23.1581C27.857 23.3261 28.046 23.4568 28.2607 23.5501C28.48 23.6388 28.7134 23.6831 28.9607 23.6831Z" fill="#D92D20"/>
</svg>
