<svg xmlns="http://www.w3.org/2000/svg" width="14" height="14" viewBox="0 0 14 14" fill="none">
    <path d="M1.5 11.0625C1.5 10.3 1.8029 9.56873 2.34207 9.02957C2.88123 8.4904 3.6125 8.1875 4.375 8.1875H10.125C10.8875 8.1875 11.6188 8.4904 12.1579 9.02957C12.6971 9.56873 13 10.3 13 11.0625C13 11.4437 12.8485 11.8094 12.579 12.079C12.3094 12.3485 11.9437 12.5 11.5625 12.5H2.9375C2.55625 12.5 2.19062 12.3485 1.92103 12.079C1.65145 11.8094 1.5 11.4437 1.5 11.0625Z" stroke="#212529" stroke-width="1.07812" stroke-linejoin="round"/>
    <path d="M7.25 5.3125C8.44086 5.3125 9.40625 4.34711 9.40625 3.15625C9.40625 1.96539 8.44086 1 7.25 1C6.05914 1 5.09375 1.96539 5.09375 3.15625C5.09375 4.34711 6.05914 5.3125 7.25 5.3125Z" stroke="#212529" stroke-width="1.07812"/>
</svg>