<svg xmlns="http://www.w3.org/2000/svg" width="12" height="11" viewBox="0 0 12 11" fill="none">
    <path d="M11.801 5.98894C11.9284 5.86149 12 5.68866 12 5.50845C12 5.32824 11.9284 5.1554 11.801 5.02795L7.95637 1.18331C7.89368 1.1184 7.81869 1.06663 7.73577 1.03101C7.65285 0.995388 7.56367 0.97664 7.47343 0.975856C7.38319 0.975071 7.2937 0.992267 7.21018 1.02644C7.12665 1.06061 7.05077 1.11108 6.98696 1.17489C6.92315 1.2387 6.87268 1.31458 6.83851 1.3981C6.80434 1.48163 6.78714 1.57112 6.78793 1.66136C6.78871 1.7516 6.80746 1.84078 6.84308 1.9237C6.8787 2.00662 6.93047 2.08161 6.99538 2.1443L9.6799 4.82882L0.679625 4.82882C0.499377 4.82882 0.326511 4.90043 0.199056 5.02788C0.0716026 5.15533 -1.90248e-07 5.3282 -1.98127e-07 5.50845C-2.06006e-07 5.68869 0.0716026 5.86156 0.199056 5.98901C0.326511 6.11647 0.499377 6.18807 0.679625 6.18807L9.6799 6.18807L6.99538 8.87259C6.87158 9.00077 6.80308 9.17245 6.80463 9.35064C6.80618 9.52884 6.87765 9.6993 7.00366 9.8253C7.12967 9.95131 7.30013 10.0228 7.47832 10.0243C7.65652 10.0259 7.82819 9.95738 7.95637 9.83358L11.801 5.98894Z" fill="white"/>
</svg>