<svg xmlns="http://www.w3.org/2000/svg" width="13" height="13" viewBox="0 0 13 13" fill="none">
    <path d="M6.08035 0.216064C2.73008 0.216064 0 2.94614 0 6.29641C0 9.64668 2.73008 12.3768 6.08035 12.3768C9.43062 12.3768 12.1607 9.64668 12.1607 6.29641C12.1607 2.94614 9.43062 0.216064 6.08035 0.216064ZM8.98675 4.89793L5.5392 8.34549C5.45407 8.43061 5.33854 8.47926 5.21694 8.47926C5.09533 8.47926 4.9798 8.43061 4.89468 8.34549L3.17394 6.62475C2.99761 6.44842 2.99761 6.15656 3.17394 5.98023C3.35027 5.8039 3.64213 5.8039 3.81846 5.98023L5.21694 7.37871L8.34224 4.25342C8.51857 4.07709 8.81042 4.07709 8.98675 4.25342C9.16308 4.42975 9.16308 4.71552 8.98675 4.89793Z" fill="#D92D20"/>
</svg>